<svg width="258" height="180" viewBox="0 0 258 180" fill="none" xmlns="http://www.w3.org/2000/svg">
<path d="M81.4999 51.5H176.5V169C176.5 171.486 174.485 173.5 172 173.5H85.9999C83.5146 173.5 81.4999 171.486 81.4999 169V51.5Z" stroke="#1F2937"/>
<path d="M174.993 11.7045L177.24 19.902L74.0484 48.1953L71.8008 39.9978C71.4357 38.6662 72.2192 37.2908 73.5507 36.9257L110.9 26.6853L111.268 26.5844L111.267 26.2025L111.261 21.5966L111.743 19.5536C112.122 17.9508 113.345 16.6827 114.933 16.2473L116.805 15.734L121.539 14.436L126.274 13.1379L128.146 12.6247C129.734 12.1892 131.433 12.656 132.576 13.8417L134.032 15.3532L136.376 19.3181L136.57 19.6469L136.939 19.5459L171.92 9.95456C173.252 9.58947 174.627 10.373 174.993 11.7045Z" stroke="#1F2937"/>
<line x1="-0.000244141" y1="179.5" x2="258" y2="179.5" stroke="#1F2937"/>
</svg>
