<svg width="510" height="350" viewBox="0 0 510 350" fill="none" xmlns="http://www.w3.org/2000/svg">
<path d="M165.167 102.667H344.833V318.333C344.833 327.445 337.446 334.833 328.333 334.833H181.667C172.554 334.833 165.167 327.445 165.167 318.333V102.667Z" stroke="#D1D5DB" stroke-width="7"/>
<path d="M344.416 32.2678L345.694 36.9291L149.919 90.6068L148.641 85.9455C146.962 79.8203 150.566 73.4934 156.691 71.814L219.737 54.528C221.694 53.9915 223.05 52.2114 223.047 50.1821L223.038 43.3917C223.037 42.6572 223.121 41.925 223.29 41.2101C224.193 37.386 227.112 34.3601 230.901 33.3211L231.956 33.0319L241.162 30.5079L250.367 27.9839L251.016 27.8061C255.056 26.6984 259.378 27.8859 262.285 30.9022C262.6 31.2294 262.876 31.5923 263.108 31.9835L266.778 38.192C267.81 39.9389 269.884 40.7785 271.841 40.2419L330.284 24.218C336.409 22.5386 342.736 26.1426 344.416 32.2678Z" stroke="#D1D5DB" stroke-width="7"/>
<path d="M4.16705 346.5H505.833" stroke="#D1D5DB" stroke-width="7" stroke-linecap="round"/>
</svg>
